<svg id="d87709b2-49ba-45e0-b471-a04da5bab679" data-name="Layer 1" xmlns="http://www.w3.org/2000/svg" viewBox="0 0 409.62 64.15"><defs><style>.\35 72b1b98-d690-4b2e-9099-d0a07a5d293c{fill:#fff;}</style></defs><title>UWFLogo_Main</title><rect class="572b1b98-d690-4b2e-9099-d0a07a5d293c" x="243.26" y="49.24" width="58.84" height="3.56"/><path class="572b1b98-d690-4b2e-9099-d0a07a5d293c" d="M91.43,58.76V42.59h3.18V59.05c0,2.32.9,3.38,2.22,3.38S99,61.37,99,59.05V42.59h3.19V58.76c0,4.44-2.25,6.63-5.37,6.63s-5.4-2.19-5.4-6.63" transform="translate(-29.19 -21.92)"/><polygon class="572b1b98-d690-4b2e-9099-d0a07a5d293c" points="78.83 20.67 81.85 20.67 86.77 34.49 86.77 20.67 89.83 20.67 89.83 43.18 87 43.18 81.88 28.84 81.88 43.18 78.83 43.18 78.83 20.67"/><rect class="572b1b98-d690-4b2e-9099-d0a07a5d293c" x="95.87" y="20.67" width="3.15" height="22.51"/><polygon class="572b1b98-d690-4b2e-9099-d0a07a5d293c" points="104.01 20.67 107.25 20.67 109.92 36.94 112.59 20.67 115.71 20.67 111.5 43.27 108.22 43.27 104.01 20.67"/><polygon class="572b1b98-d690-4b2e-9099-d0a07a5d293c" points="120.57 20.67 128.9 20.67 128.9 23.66 123.75 23.66 123.75 30.34 128.35 30.34 128.35 33.34 123.75 33.34 123.75 40.19 128.99 40.19 128.99 43.18 120.57 43.18 120.57 20.67"/><path class="572b1b98-d690-4b2e-9099-d0a07a5d293c" d="M167.28,54c2.12,0,3.57-1.29,3.57-4.18v-.2c0-3.08-1.54-4.11-3.66-4.11h-.45V54Zm-3.73-11.45h3.67a6.83,6.83,0,0,1,5,1.77A7.17,7.17,0,0,1,174,49.6v.23a6.57,6.57,0,0,1-3,6l3.41,9.26H171l-3-8.23-.42,0h-.83v8.2h-3.19Z" transform="translate(-29.19 -21.92)"/><path class="572b1b98-d690-4b2e-9099-d0a07a5d293c" d="M178.89,64.26V61a6.83,6.83,0,0,0,3.6,1.32,2.31,2.31,0,0,0,2.45-2.54c0-1.09-.36-2.15-2.45-4.63-2.83-3.31-3.79-4.79-3.79-7.23v0a5.14,5.14,0,0,1,5.24-5.46,7,7,0,0,1,3.37.8v3.28a5.76,5.76,0,0,0-3.11-1.09,2.25,2.25,0,0,0-2.32,2.38c0,1.16.42,2,2.48,4.44,3,3.53,3.76,5.11,3.76,7.52v0a5.2,5.2,0,0,1-5.27,5.53,8.08,8.08,0,0,1-4-1" transform="translate(-29.19 -21.92)"/><rect class="572b1b98-d690-4b2e-9099-d0a07a5d293c" x="164.11" y="20.67" width="3.15" height="22.51"/><polygon class="572b1b98-d690-4b2e-9099-d0a07a5d293c" points="175.46 23.66 172.4 23.66 172.4 20.67 181.66 20.67 181.66 23.66 178.61 23.66 178.61 43.18 175.46 43.18 175.46 23.66"/><polygon class="572b1b98-d690-4b2e-9099-d0a07a5d293c" points="189.41 34.04 185.07 20.67 188.38 20.67 191.05 29.86 193.72 20.67 196.94 20.67 192.6 34.04 192.6 43.18 189.41 43.18 189.41 34.04"/><path class="572b1b98-d690-4b2e-9099-d0a07a5d293c" d="M241.74,57.87a15.16,15.16,0,0,0,2.3-6.48c0-.74-.11-1.47-.87-1.47-.5,0-1.07.3-1.78,1.2a14.17,14.17,0,0,0-2.71,6.94c0,.82.36,1.42,1,1.42s1.26-.44,2.07-1.61M239,50.76a5.93,5.93,0,0,1,4.15-1.83c2.44,0,3.39,1.67,3.37,3.72a9,9,0,0,1-2.68,5.93,5.93,5.93,0,0,1-4.32,1.89,3.21,3.21,0,0,1-3.39-3.58A9.54,9.54,0,0,1,239,50.76" transform="translate(-29.19 -21.92)"/><path class="572b1b98-d690-4b2e-9099-d0a07a5d293c" d="M255.45,50.52c-.92,2.73-2.13,7.71-3,10.38a12.71,12.71,0,0,1-2.15,4.65,5.79,5.79,0,0,1-3.83,1.89c-1.53,0-2.52-.88-2.52-1.84a1.56,1.56,0,0,1,1.37-1.42.89.89,0,0,1,.82.55c.55,1,1.15,1.5,1.61,1.5s.8-.43,1.34-2.32c.93-3.28,2.24-8.58,3.61-13.39h-2.43a.87.87,0,0,1,.33-1.2h2.43a20.19,20.19,0,0,1,2.35-5.61c1.37-2,3.09-3.17,5.08-3.17a2.35,2.35,0,0,1,2.6,2.11,1.69,1.69,0,0,1-1.48,1.58c-.38,0-.54-.16-.6-.55-.22-1.58-.87-2.15-1.47-2.15-.41,0-.93.35-1.64,1.77a33.82,33.82,0,0,0-2.11,6H259a.91.91,0,0,1-.32,1.2Z" transform="translate(-29.19 -21.92)"/><polygon class="572b1b98-d690-4b2e-9099-d0a07a5d293c" points="243.26 20.67 246.54 20.67 248.6 36.23 251.07 20.67 254 20.67 256.44 36.23 258.53 20.67 261.72 20.67 258.18 43.27 254.9 43.27 252.49 28.03 250.11 43.27 246.83 43.27 243.26 20.67"/><polygon class="572b1b98-d690-4b2e-9099-d0a07a5d293c" points="266.7 20.67 275.03 20.67 275.03 23.66 269.88 23.66 269.88 30.34 274.48 30.34 274.48 33.34 269.88 33.34 269.88 40.19 275.13 40.19 275.13 43.18 266.7 43.18 266.7 20.67"/><path class="572b1b98-d690-4b2e-9099-d0a07a5d293c" d="M309.14,64.26V61a6.77,6.77,0,0,0,3.6,1.32,2.3,2.3,0,0,0,2.44-2.54c0-1.09-.35-2.15-2.44-4.63-2.83-3.31-3.79-4.79-3.79-7.23v0a5.14,5.14,0,0,1,5.24-5.46,7,7,0,0,1,3.37.8v3.28a5.79,5.79,0,0,0-3.12-1.09,2.24,2.24,0,0,0-2.31,2.38c0,1.16.42,2,2.48,4.44,3,3.53,3.76,5.11,3.76,7.52v0a5.21,5.21,0,0,1-5.28,5.53,8,8,0,0,1-3.95-1" transform="translate(-29.19 -21.92)"/><polygon class="572b1b98-d690-4b2e-9099-d0a07a5d293c" points="295.89 23.66 292.84 23.66 292.84 20.67 302.1 20.67 302.1 23.66 299.05 23.66 299.05 43.18 295.89 43.18 295.89 23.66"/><polygon class="572b1b98-d690-4b2e-9099-d0a07a5d293c" points="315.51 20.67 323.45 20.67 323.45 23.66 318.69 23.66 318.69 30.47 322.91 30.47 322.91 33.5 318.69 33.5 318.69 43.18 315.51 43.18 315.51 20.67"/><polygon class="572b1b98-d690-4b2e-9099-d0a07a5d293c" points="328.66 20.67 331.84 20.67 331.84 40.19 336.44 40.19 336.44 43.18 328.66 43.18 328.66 20.67"/><path class="572b1b98-d690-4b2e-9099-d0a07a5d293c" d="M377.65,54.33v-1c0-6-1.06-8.17-2.57-8.17s-2.57,2.16-2.57,8.17v1c0,6,1.06,8.16,2.57,8.16s2.57-2.15,2.57-8.16m-8.36,0v-1c0-7.43,2.38-11.06,5.79-11.06s5.79,3.63,5.79,11.06v1c0,7.43-2.38,11.06-5.79,11.06s-5.79-3.63-5.79-11.06" transform="translate(-29.19 -21.92)"/><path class="572b1b98-d690-4b2e-9099-d0a07a5d293c" d="M390.07,54c2.12,0,3.57-1.29,3.57-4.18v-.2c0-3.08-1.55-4.11-3.67-4.11h-.45V54Zm-3.73-11.45H390a6.86,6.86,0,0,1,5,1.77,7.21,7.21,0,0,1,1.83,5.24v.23a6.58,6.58,0,0,1-3,6l3.4,9.26h-3.4l-3-8.23-.41,0h-.84v8.2h-3.18Z" transform="translate(-29.19 -21.92)"/><rect class="572b1b98-d690-4b2e-9099-d0a07a5d293c" x="373.16" y="20.67" width="3.15" height="22.51"/><path class="572b1b98-d690-4b2e-9099-d0a07a5d293c" d="M414.73,45.48V62.2h.48c2.32,0,4.15-2.15,4.15-8v-.71c0-5.85-1.86-8-4.15-8Zm-3.18-2.89h3.37c4.76,0,7.66,3.67,7.66,10.9v.71c0,7.23-2.9,10.9-7.66,10.9h-3.37Z" transform="translate(-29.19 -21.92)"/><path class="572b1b98-d690-4b2e-9099-d0a07a5d293c" d="M434.21,57.22l-1.64-9-1.64,9Zm-3.28-14.69h3.41l4.47,22.57H435.6l-.9-5h-4.25l-.9,5h-3.09Z" transform="translate(-29.19 -21.92)"/><path class="572b1b98-d690-4b2e-9099-d0a07a5d293c" d="M34.93,72.92l12.45-8.13a.47.47,0,0,0-.34-.86L31.89,66.6a.61.61,0,0,0-.46.83,30.76,30.76,0,0,0,2.63,5.3A.62.62,0,0,0,34.93,72.92Z" transform="translate(-29.19 -21.92)"/><path class="572b1b98-d690-4b2e-9099-d0a07a5d293c" d="M57.43,40.37,53.19,24.59c-.21-.81-.73-1-1.53-.72a35.7,35.7,0,0,0-4.45,1.75c-.81.38-1.27,1-.76,1.76L56.92,40.6A.29.29,0,0,0,57.43,40.37Z" transform="translate(-29.19 -21.92)"/><path class="572b1b98-d690-4b2e-9099-d0a07a5d293c" d="M53.14,45.59,42.35,31.74c-.59-.74-1.31-1.23-2-.57-1,1-2.77,2.73-3.7,3.86-.62.76-.08,1.67.76,2.18L52.74,46A.3.3,0,0,0,53.14,45.59Z" transform="translate(-29.19 -21.92)"/><path class="572b1b98-d690-4b2e-9099-d0a07a5d293c" d="M57.28,22.93l4.15,11.8a.28.28,0,0,0,.55-.11l.18-12.27a.42.42,0,0,0-.42-.43,27.7,27.7,0,0,0-4.15.44A.43.43,0,0,0,57.28,22.93Z" transform="translate(-29.19 -21.92)"/><path class="572b1b98-d690-4b2e-9099-d0a07a5d293c" d="M48.29,57.7,30.65,54.38a1.21,1.21,0,0,0-1.43,1.15,29.93,29.93,0,0,0,.18,4.83,1.21,1.21,0,0,0,1.4,1.07l17.48-3A.37.37,0,0,0,48.29,57.7Z" transform="translate(-29.19 -21.92)"/><path class="572b1b98-d690-4b2e-9099-d0a07a5d293c" d="M49.84,51.84l-16-9.76a1.11,1.11,0,0,0-1.55.48,35,35,0,0,0-1.87,4.88,1.23,1.23,0,0,0,1,1.55L49.63,52.4A.3.3,0,0,0,49.84,51.84Z" transform="translate(-29.19 -21.92)"/><path class="572b1b98-d690-4b2e-9099-d0a07a5d293c" d="M60.68,49.32c-7.26,1.82-10.42,9.15-8.89,14a8,8,0,0,0,7.84,5.84c2.32,0,4.84-1.52,5.23-4,.42-2.73-1.69-4.95-3.66-4.84a2.59,2.59,0,0,0-2.47,2.22,1.2,1.2,0,0,0,1,1.29.74.74,0,0,0,.76-.65c0-.13.18-.11.23,0a1.14,1.14,0,0,1-.5,1.43c-1.12.57-2.79-.64-2.81-2.2a4,4,0,0,1,4.16-3.82c3,0,5.4,2.75,5.63,5.93.2,2.86-2,6.08-5.49,7.09-3.13.92-7.32-.11-10.62-2.81a2.47,2.47,0,0,0-3.06-.07L37.21,77.05a.23.23,0,0,0,0,.35,28.44,28.44,0,0,0,20.51,8.67l.81,0c11.71-.65,22.37-10.2,20.94-22.48C78.39,54.64,70.59,46.83,60.68,49.32Z" transform="translate(-29.19 -21.92)"/></svg>